#Comment line ignore any data following # character 
#Hierarchical Translation and Rotation (.htr) file 
[Header]	
#Header keywords are followed by a single value 
FileType HTR		#Single word string
DataType HTRS		#Translation followed by rotation and scale data
FileVersion 1		#integer
NumSegments 84		#integer
NumFrames 2		#integer
DataFrameRate 30		#integer, data frame rate in this file
EulerRotationOrder ZYX
CalibrationUnits mm
RotationUnits Degrees
GlobalAxisofGravity Y
BoneLengthAxis Y
ScaleFactor 1.00
[SegmentNames&Hierarchy]
#CHILD	PARENT
MASTER GLOBAL
root MASTER
chest root
L_mid_tent01 root
R_mid_tent01 root
spine01 root
Bip01_Neck chest
L_humerus chest
R_humerus chest
weapon_bone chest
Bip01_Head Bip01_Neck
eye_left_bone Bip01_Head
eye_right_bone Bip01_Head
L_forearm L_humerus
L_front_hand L_forearm
L_weapon_bone L_forearm
L_front_hand01_01 L_front_hand
L_front_hand02_01 L_front_hand
L_front_hand03_01 L_front_hand
L_front_hand01_02 L_front_hand01_01
L_front_hand02_02 L_front_hand02_01
L_front_hand03_02 L_front_hand03_01
R_forearm R_humerus
R_front_hand R_forearm
R_weapon_bone R_forearm
R_front_hand01_01 R_front_hand
R_front_hand02_01 R_front_hand
R_front_hand03_01 R_front_hand
R_front_hand01_02 R_front_hand01_01
R_front_hand02_02 R_front_hand02_01
R_front_hand03_02 R_front_hand03_01
null_rope01_connect L_mid_tent01
Rope1_Seg01 null_rope01_connect
Rope1_Seg02 Rope1_Seg01
Rope1_Seg03 Rope1_Seg02
Rope1_Seg04 Rope1_Seg03
Rope1_Seg05 Rope1_Seg04
Rope1_Seg06 Rope1_Seg05
Rope1_Seg07 Rope1_Seg06
Rope1_Seg09 Rope1_Seg07
L_mid_hand01 Rope1_Seg09
L_mid_hand02 Rope1_Seg09
L_mid_hand03 Rope1_Seg09
null_rope02_connect R_mid_tent01
Rope2_Seg01 null_rope02_connect
Rope2_Seg02 Rope2_Seg01
Rope2_Seg03 Rope2_Seg02
Rope2_Seg04 Rope2_Seg03
Rope2_Seg05 Rope2_Seg04
Rope2_Seg06 Rope2_Seg05
Rope2_Seg07 Rope2_Seg06
Rope2_Seg09 Rope2_Seg07
R_mid_hand01 Rope2_Seg09
R_mid_hand02 Rope2_Seg09
R_mid_hand03 Rope2_Seg09
spine02 spine01
spine03 spine02
pelvis spine03
null_rope03_connect pelvis
null_rope04_connect pelvis
Rope3_Seg01 null_rope03_connect
Rope3_Seg02 Rope3_Seg01
Rope3_Seg03 Rope3_Seg02
Rope3_Seg04 Rope3_Seg03
Rope3_Seg05 Rope3_Seg04
Rope3_Seg06 Rope3_Seg05
Rope3_Seg07 Rope3_Seg06
Rope3_Seg08 Rope3_Seg07
Rope3_Seg09 Rope3_Seg08
R_rear_hand01 Rope3_Seg09
R_rear_hand02 Rope3_Seg09
R_rear_hand03 Rope3_Seg09
Rope4_Seg01 null_rope04_connect
Rope4_Seg02 Rope4_Seg01
Rope4_Seg03 Rope4_Seg02
Rope4_Seg04 Rope4_Seg03
Rope4_Seg05 Rope4_Seg04
Rope4_Seg06 Rope4_Seg05
Rope4_Seg07 Rope4_Seg06
Rope4_Seg08 Rope4_Seg07
Rope4_Seg09 Rope4_Seg08
L_rear_hand01 Rope4_Seg09
L_rear_hand02 Rope4_Seg09
L_rear_hand03 Rope4_Seg09
[BasePosition]
#SegmentName Tx, Ty, Tz, Rx, Ry, Rz, BoneLength
MASTER 0.000000 0.000000 0.000000 -90.000000 0.000000 0.000000 10.000000 
root 0.000000 0.000000 0.000000 0.000000 0.000000 0.000000 10.000000 
chest 0.000000 0.000000 0.000000 0.000000 0.000000 0.000000 10.000000 
L_mid_tent01 0.000000 0.000000 0.000000 0.000000 0.000000 0.000000 10.000000 
R_mid_tent01 0.000000 0.000000 0.000000 0.000000 0.000000 0.000000 10.000000 
spine01 0.000000 0.000000 0.000000 0.000000 0.000000 0.000000 10.000000 
Bip01_Neck 0.000000 0.000000 0.000000 0.000000 0.000000 0.000000 10.000000 
L_humerus 0.000000 0.000000 0.000000 0.000000 0.000000 0.000000 10.000000 
R_humerus 0.000000 0.000000 0.000000 0.000000 0.000000 0.000000 10.000000 
weapon_bone 0.000000 0.000000 0.000000 0.000000 0.000000 0.000000 10.000000 
Bip01_Head 0.000000 0.000000 0.000000 0.000000 0.000000 0.000000 10.000000 
eye_left_bone 0.000000 0.000000 0.000000 0.000000 0.000000 0.000000 10.000000 
eye_right_bone 0.000000 0.000000 0.000000 0.000000 0.000000 0.000000 10.000000 
L_forearm 0.000000 0.000000 0.000000 0.000000 0.000000 0.000000 10.000000 
L_front_hand 0.000000 0.000000 0.000000 0.000000 0.000000 0.000000 10.000000 
L_weapon_bone 0.000000 0.000000 0.000000 0.000000 0.000000 0.000000 10.000000 
L_front_hand01_01 0.000000 0.000000 0.000000 0.000000 0.000000 0.000000 10.000000 
L_front_hand02_01 0.000000 0.000000 0.000000 0.000000 0.000000 0.000000 10.000000 
L_front_hand03_01 0.000000 0.000000 0.000000 0.000000 0.000000 0.000000 10.000000 
L_front_hand01_02 0.000000 0.000000 0.000000 0.000000 0.000000 0.000000 10.000000 
L_front_hand02_02 0.000000 0.000000 0.000000 0.000000 0.000000 0.000000 10.000000 
L_front_hand03_02 0.000000 0.000000 0.000000 0.000000 0.000000 0.000000 10.000000 
R_forearm 0.000000 0.000000 0.000000 0.000000 0.000000 0.000000 10.000000 
R_front_hand 0.000000 0.000000 0.000000 0.000000 0.000000 0.000000 10.000000 
R_weapon_bone 0.000000 0.000000 0.000000 0.000000 0.000000 0.000000 10.000000 
R_front_hand01_01 0.000000 0.000000 0.000000 0.000000 0.000000 0.000000 10.000000 
R_front_hand02_01 0.000000 0.000000 0.000000 0.000000 0.000000 0.000000 10.000000 
R_front_hand03_01 0.000000 0.000000 0.000000 0.000000 0.000000 0.000000 10.000000 
R_front_hand01_02 0.000000 0.000000 0.000000 0.000000 0.000000 0.000000 10.000000 
R_front_hand02_02 0.000000 0.000000 0.000000 0.000000 0.000000 0.000000 10.000000 
R_front_hand03_02 0.000000 0.000000 0.000000 0.000000 0.000000 0.000000 10.000000 
null_rope01_connect 0.000000 0.000000 0.000000 0.000000 0.000000 0.000000 10.000000 
Rope1_Seg01 0.000000 0.000000 0.000000 0.000000 0.000000 0.000000 10.000000 
Rope1_Seg02 0.000000 0.000000 0.000000 0.000000 0.000000 0.000000 10.000000 
Rope1_Seg03 0.000000 0.000000 0.000000 0.000000 0.000000 0.000000 10.000000 
Rope1_Seg04 0.000000 0.000000 0.000000 0.000000 0.000000 0.000000 10.000000 
Rope1_Seg05 0.000000 0.000000 0.000000 0.000000 0.000000 0.000000 10.000000 
Rope1_Seg06 0.000000 0.000000 0.000000 0.000000 0.000000 0.000000 10.000000 
Rope1_Seg07 0.000000 0.000000 0.000000 0.000000 0.000000 0.000000 10.000000 
Rope1_Seg09 0.000000 0.000000 0.000000 0.000000 0.000000 0.000000 10.000000 
L_mid_hand01 0.000000 0.000000 0.000000 0.000000 0.000000 0.000000 10.000000 
L_mid_hand02 0.000000 0.000000 0.000000 0.000000 0.000000 0.000000 10.000000 
L_mid_hand03 0.000000 0.000000 0.000000 0.000000 0.000000 0.000000 10.000000 
null_rope02_connect 0.000000 0.000000 0.000000 0.000000 0.000000 0.000000 10.000000 
Rope2_Seg01 0.000000 0.000000 0.000000 0.000000 0.000000 0.000000 10.000000 
Rope2_Seg02 0.000000 0.000000 0.000000 0.000000 0.000000 0.000000 10.000000 
Rope2_Seg03 0.000000 0.000000 0.000000 0.000000 0.000000 0.000000 10.000000 
Rope2_Seg04 0.000000 0.000000 0.000000 0.000000 0.000000 0.000000 10.000000 
Rope2_Seg05 0.000000 0.000000 0.000000 0.000000 0.000000 0.000000 10.000000 
Rope2_Seg06 0.000000 0.000000 0.000000 0.000000 0.000000 0.000000 10.000000 
Rope2_Seg07 0.000000 0.000000 0.000000 0.000000 0.000000 0.000000 10.000000 
Rope2_Seg09 0.000000 0.000000 0.000000 0.000000 0.000000 0.000000 10.000000 
R_mid_hand01 0.000000 0.000000 0.000000 0.000000 0.000000 0.000000 10.000000 
R_mid_hand02 0.000000 0.000000 0.000000 0.000000 0.000000 0.000000 10.000000 
R_mid_hand03 0.000000 0.000000 0.000000 0.000000 0.000000 0.000000 10.000000 
spine02 0.000000 0.000000 0.000000 0.000000 0.000000 0.000000 10.000000 
spine03 0.000000 0.000000 0.000000 0.000000 0.000000 0.000000 10.000000 
pelvis 0.000000 0.000000 0.000000 0.000000 0.000000 0.000000 10.000000 
null_rope03_connect 0.000000 0.000000 0.000000 0.000000 0.000000 0.000000 10.000000 
null_rope04_connect 0.000000 0.000000 0.000000 0.000000 0.000000 0.000000 10.000000 
Rope3_Seg01 0.000000 0.000000 0.000000 0.000000 0.000000 0.000000 10.000000 
Rope3_Seg02 0.000000 0.000000 0.000000 0.000000 0.000000 0.000000 10.000000 
Rope3_Seg03 0.000000 0.000000 0.000000 0.000000 0.000000 0.000000 10.000000 
Rope3_Seg04 0.000000 0.000000 0.000000 0.000000 0.000000 0.000000 10.000000 
Rope3_Seg05 0.000000 0.000000 0.000000 0.000000 0.000000 0.000000 10.000000 
Rope3_Seg06 0.000000 0.000000 0.000000 0.000000 0.000000 0.000000 10.000000 
Rope3_Seg07 0.000000 0.000000 0.000000 0.000000 0.000000 0.000000 10.000000 
Rope3_Seg08 0.000000 0.000000 0.000000 0.000000 0.000000 0.000000 10.000000 
Rope3_Seg09 0.000000 0.000000 0.000000 0.000000 0.000000 0.000000 10.000000 
R_rear_hand01 0.000000 0.000000 0.000000 0.000000 0.000000 0.000000 10.000000 
R_rear_hand02 0.000000 0.000000 0.000000 0.000000 0.000000 0.000000 10.000000 
R_rear_hand03 0.000000 0.000000 0.000000 0.000000 0.000000 0.000000 10.000000 
Rope4_Seg01 0.000000 0.000000 0.000000 0.000000 0.000000 0.000000 10.000000 
Rope4_Seg02 0.000000 0.000000 0.000000 0.000000 0.000000 0.000000 10.000000 
Rope4_Seg03 0.000000 0.000000 0.000000 0.000000 0.000000 0.000000 10.000000 
Rope4_Seg04 0.000000 0.000000 0.000000 0.000000 0.000000 0.000000 10.000000 
Rope4_Seg05 0.000000 0.000000 0.000000 0.000000 0.000000 0.000000 10.000000 
Rope4_Seg06 0.000000 0.000000 0.000000 0.000000 0.000000 0.000000 10.000000 
Rope4_Seg07 0.000000 0.000000 0.000000 0.000000 0.000000 0.000000 10.000000 
Rope4_Seg08 0.000000 0.000000 0.000000 0.000000 0.000000 0.000000 10.000000 
Rope4_Seg09 0.000000 0.000000 0.000000 0.000000 0.000000 0.000000 10.000000 
L_rear_hand01 0.000000 0.000000 0.000000 0.000000 0.000000 0.000000 10.000000 
L_rear_hand02 0.000000 0.000000 0.000000 0.000000 0.000000 0.000000 10.000000 
L_rear_hand03 0.000000 0.000000 0.000000 0.000000 0.000000 0.000000 10.000000 
#Beginning of Data. Separated by tabs
#Fr	Tx	Ty	Tz	Rx	Ry	Rz	SF
[MASTER]
7 464.144226 -1107.949463 452.195587 0.000000 -0.002347 -90.000000 1283.535278
8 572.830444 -1277.182495 635.565430 0.000000 -0.002347 -89.999992 1537.294189
[root]
7 -29.604052 -66.221954 1303.673584 -109.798363 -35.474808 -174.801010 1305.690186
8 13.719768 -100.027901 1224.285889 -125.061913 -32.078331 -168.333527 1228.441895
[chest]
7 -84.512650 -34.090519 0.000000 -20.738443 -12.930737 -175.237915 91.129311
8 -84.512650 -34.090519 0.000000 -24.839033 -14.707448 -171.456039 91.129311
[L_mid_tent01]
7 27.299160 22.179169 -249.918701 -1.189963 17.078775 68.416061 252.381699
8 27.299166 22.179173 -249.918701 -2.000525 21.339958 67.299889 252.381699
[R_mid_tent01]
7 23.228794 24.509907 226.238495 171.441574 -25.223787 62.099098 228.744751
8 23.228794 24.509907 226.238495 172.044556 -25.304277 60.697495 228.744751
[spine01]
7 -0.361383 -0.195265 0.000000 0.001953 0.001302 22.611418 0.410763
8 -0.361383 -0.195265 0.000000 0.001954 0.001301 22.666903 0.410763
[Bip01_Neck]
7 165.484543 71.581718 0.000119 176.643677 -1.657967 43.431911 180.302734
8 165.484543 71.581718 0.000119 176.643677 -1.657967 43.431911 180.302734
[L_humerus]
7 -13.983130 -135.272980 -120.471481 4.475571 70.998978 94.287521 181.680161
8 -13.983130 -135.272980 -120.471481 8.187989 72.750259 98.024300 181.680161
[R_humerus]
7 -13.983309 -135.273102 125.287651 62.412273 -87.276527 32.743973 184.909012
8 -13.983309 -135.273102 125.287651 169.524338 -85.844612 -74.454346 184.909012
[weapon_bone]
7 235.964890 -300.705902 0.000000 0.000000 -89.951546 -128.212341 382.234833
8 235.964890 -300.705902 0.000000 0.000000 -89.951546 -128.212341 382.234833
[Bip01_Head]
7 213.636154 185.181168 18.674128 15.014684 0.900861 -43.884995 283.339355
8 213.673965 185.076309 20.027380 16.374157 -0.761699 -43.897732 283.391785
[eye_left_bone]
7 -24.626970 125.451866 -64.772606 0.000000 -90.000000 -99.840431 143.318359
8 -24.626970 125.451866 -64.772606 0.000000 -90.000000 -99.840431 143.318359
[eye_right_bone]
7 -24.626970 125.451866 64.327362 0.000000 -89.965736 80.156380 143.117676
8 -24.626970 125.451866 64.327362 0.000000 -89.965736 80.156380 143.117676
[L_forearm]
7 322.776093 0.000000 -0.000119 0.000419 -0.002310 -110.567162 322.776093
8 322.776093 0.000000 -0.000119 0.000422 -0.002309 -110.690422 322.776093
[L_front_hand]
7 241.149185 -0.042021 -3.300071 -178.667953 -1.835447 -27.422350 241.171753
8 241.149185 -0.042021 -3.300071 -178.667953 -1.835447 -27.422350 241.171753
[L_weapon_bone]
7 156.183838 0.000000 0.000000 0.000014 0.000007 0.000001 156.183838
8 156.183838 0.000000 0.000000 0.000014 0.000007 0.000001 156.183838
[L_front_hand01_01]
7 86.095154 20.947098 -0.655860 -0.322964 -0.505554 70.186295 88.609184
8 86.095154 20.947098 -0.655860 -0.304872 -0.514302 68.276085 88.609184
[L_front_hand02_01]
7 86.935165 -11.437475 24.513514 146.960190 -57.330456 -52.657890 91.046425
8 86.935165 -11.437475 24.513514 144.546585 -56.255684 -49.772915 91.046425
[L_front_hand03_01]
7 86.637497 -14.123976 -20.424902 -146.989075 55.546074 -54.434807 90.126129
8 86.637497 -14.123976 -20.424902 -144.732681 54.475929 -51.681915 90.126129
[L_front_hand01_02]
7 71.020905 -0.000179 0.000030 0.000316 -0.002326 -105.473587 71.020905
8 71.020905 -0.000179 0.000030 0.000316 -0.002326 -105.453369 71.020905
[L_front_hand02_02]
7 71.020927 -0.000119 0.000060 0.000316 -0.002326 -105.473587 71.020927
8 71.020927 -0.000119 0.000060 0.000316 -0.002326 -105.453369 71.020927
[L_front_hand03_02]
7 71.020905 -0.000060 0.000060 0.000316 -0.002326 -105.473587 71.020905
8 71.020905 -0.000060 0.000060 0.000316 -0.002326 -105.453369 71.020905
[R_forearm]
7 322.776428 -0.000060 0.000030 0.201431 0.067205 -109.225708 322.776428
8 322.776428 -0.000060 0.000030 0.201358 0.067424 -109.349968 322.776428
[R_front_hand]
7 238.847015 -0.006795 2.210259 -2.635298 -10.645461 -26.312506 238.857239
8 238.847015 -0.006795 2.210259 -2.635298 -10.645461 -26.312506 238.857239
[R_weapon_bone]
7 155.664093 0.002503 -0.000030 0.003487 0.001180 -90.988930 155.664078
8 155.664093 0.002503 -0.000030 0.003487 0.001180 -90.988930 155.664078
[R_front_hand01_01]
7 87.624611 14.231146 22.918642 -146.976166 -57.336147 52.779388 91.683487
8 87.624611 14.231146 22.918642 -144.302139 -56.138660 49.586018 91.683487
[R_front_hand02_01]
7 89.356956 14.367283 -19.491137 147.400665 55.711205 55.166904 92.579636
8 89.356956 14.367283 -19.491137 144.866989 54.526863 52.081070 92.579636
[R_front_hand03_01]
7 87.286232 -22.307278 -0.143439 0.123256 -0.437630 -70.429710 90.091743
8 87.286232 -22.307278 -0.143439 0.104166 -0.441299 -68.306503 90.091743
[R_front_hand01_02]
7 71.020905 0.000060 0.000119 0.002323 -0.000334 106.381714 71.020905
8 71.020905 0.000060 0.000119 0.002323 -0.000334 106.381721 71.020905
[R_front_hand02_02]
7 71.020844 -0.000030 -0.000119 0.002323 -0.000334 106.381714 71.020836
8 71.020844 -0.000030 -0.000119 0.002323 -0.000334 106.381721 71.020836
[R_front_hand03_02]
7 71.020905 0.000000 0.000030 0.002323 -0.000334 106.381714 71.020905
8 71.020905 0.000000 0.000030 0.002323 -0.000334 106.381721 71.020905
[null_rope01_connect]
7 328.732483 0.000000 -0.000238 141.588745 56.965984 20.614260 328.732483
8 328.732483 0.000000 -0.000238 147.720337 41.034718 28.886801 328.732483
[Rope1_Seg01]
7 0.000000 0.000000 0.000000 117.306274 18.213326 38.175995 0.000000
8 0.000000 0.000000 0.000000 100.270126 -14.367961 9.759044 0.000000
[Rope1_Seg02]
7 139.999863 -0.000179 0.000000 11.182911 -27.904863 12.328857 139.999863
8 139.999863 -0.000179 0.000000 9.229746 -30.040867 -4.590943 139.999863
[Rope1_Seg03]
7 139.999924 0.000060 -0.000060 -1.138103 -12.067983 13.140710 139.999924
8 139.999924 0.000060 -0.000060 0.655589 -19.075779 -0.429439 139.999924
[Rope1_Seg04]
7 139.999924 -0.000060 -0.000119 1.146129 -20.945194 6.966883 139.999924
8 139.999924 -0.000060 -0.000119 -2.679133 -19.996513 -1.032942 139.999924
[Rope1_Seg05]
7 139.999832 0.000119 -0.000060 -2.586659 -22.239429 5.412063 139.999832
8 139.999832 0.000119 -0.000060 -2.113651 -7.858631 -0.745623 139.999832
[Rope1_Seg06]
7 139.999954 0.000119 -0.000060 -2.224033 -9.548531 2.575215 139.999954
8 139.999954 0.000119 -0.000060 -1.475936 -4.403962 -0.575158 139.999954
[Rope1_Seg07]
7 139.999985 0.000060 0.000000 -1.694518 -5.521591 1.286730 139.999985
8 139.999985 0.000060 0.000000 -1.041484 -2.777260 -0.438146 139.999985
[Rope1_Seg09]
7 121.602913 0.000119 -0.000089 -89.793175 -1.359789 0.847147 121.602913
8 121.602913 0.000119 -0.000089 -89.793175 -1.359789 0.847147 121.602913
[L_mid_hand01]
7 103.859421 1.038730 8.195221 112.987701 -50.601227 -18.681456 104.187431
8 103.859421 1.038730 8.195221 111.216125 -46.770248 -16.325296 104.187431
[L_mid_hand02]
7 105.572853 -4.139662 -10.864139 -153.018723 36.866009 -49.082401 106.211075
8 105.572853 -4.139662 -10.864139 -150.384232 34.904903 -44.592545 106.211075
[L_mid_hand03]
7 104.641464 17.579376 -3.913581 -11.755013 14.733717 54.618225 106.179977
8 104.641464 17.579376 -3.913581 -12.781254 13.855400 50.452682 106.179977
[null_rope02_connect]
7 328.732849 0.000179 -0.000119 58.996212 -66.499054 -121.467323 328.732849
8 328.732849 0.000179 -0.000119 38.257633 -59.305111 -97.951866 328.732849
[Rope2_Seg01]
7 -0.000072 -0.000168 0.000000 -139.245865 50.019650 146.599228 0.000183
8 -0.000071 -0.000164 0.000000 -133.866348 55.930267 151.668961 0.000179
[Rope2_Seg02]
7 139.999741 -0.000060 -0.000119 5.293561 -3.387054 -2.334470 139.999756
8 139.999741 -0.000060 -0.000119 1.171585 -5.960866 1.406682 139.999756
[Rope2_Seg03]
7 140.000107 0.000030 0.000000 13.273854 3.140764 -9.607166 140.000107
8 140.000107 0.000030 0.000000 5.156075 2.723007 -6.252343 140.000107
[Rope2_Seg04]
7 139.999802 0.000000 -0.000060 0.178296 -3.770391 1.549628 139.999802
8 139.999802 0.000000 -0.000060 -2.044386 -6.134176 4.783727 139.999802
[Rope2_Seg05]
7 139.999985 -0.000060 0.000119 -32.932056 -26.832067 59.760529 139.999985
8 139.999985 -0.000060 0.000119 -25.062916 -38.343212 53.701775 139.999985
[Rope2_Seg06]
7 139.999893 -0.000030 -0.000119 -1.414452 -21.369656 20.808651 139.999893
8 139.999893 -0.000030 -0.000119 1.859063 -21.504105 19.539818 139.999893
[Rope2_Seg07]
7 139.999893 0.000060 -0.000060 1.381981 -5.431178 5.275872 139.999893
8 139.999893 0.000060 -0.000060 2.993703 -5.343571 5.460770 139.999893
[Rope2_Seg09]
7 121.338966 0.000089 -0.000060 33.793236 -1.359788 -0.847141 121.338966
8 121.338966 0.000089 -0.000060 33.793236 -1.359788 -0.847141 121.338966
[R_mid_hand01]
7 104.680779 11.144459 -10.335981 -25.192726 41.648338 57.439434 105.778534
8 104.680779 11.144459 -10.335981 -27.387484 40.402237 54.098232 105.778534
[R_mid_hand02]
7 104.070427 2.443552 8.231699 60.800945 -59.436069 26.232430 104.424065
8 104.070427 2.443552 8.231699 62.946606 -56.952812 23.709986 104.424065
[R_mid_hand03]
7 106.028137 -11.221827 -5.996406 -174.361145 14.799507 -66.152634 106.788818
8 106.028137 -11.221827 -5.996406 -173.630432 14.503002 -63.260223 106.788818
[spine02]
7 129.756927 0.001550 0.000119 0.472592 -4.032271 -14.573848 129.756927
8 129.756927 0.001550 0.000119 0.489100 -4.030212 -14.764026 129.756927
[spine03]
7 78.614067 0.081743 -4.899005 1.963826 3.798936 17.510508 78.766602
8 78.614067 0.081743 -4.899004 1.971998 3.793847 17.620859 78.766602
[pelvis]
7 169.435242 0.051022 0.000000 2.470654 -0.652962 10.291051 169.435257
8 169.435242 0.051022 0.000000 3.157891 -0.745308 9.074580 169.435257
[null_rope03_connect]
7 -1.257226 -2.466202 137.391083 156.707687 76.466484 67.122131 137.418976
8 -1.257226 -2.466202 137.391083 164.668243 64.165596 75.197212 137.418976
[null_rope04_connect]
7 -1.259640 -2.480268 -137.844437 156.707687 76.466484 67.122131 137.872513
8 -1.259640 -2.480268 -137.844437 164.668243 64.165596 75.197212 137.872513
[Rope3_Seg01]
7 0.000000 0.000000 0.000000 -129.991684 -17.558346 97.602646 0.000000
8 0.000000 0.000000 0.000000 -133.592453 -16.278162 111.947487 0.000000
[Rope3_Seg02]
7 139.999924 -0.000119 0.000060 10.299993 -26.670321 -27.283442 139.999924
8 139.999924 -0.000119 0.000060 16.627485 -31.955757 -15.996906 139.999924
[Rope3_Seg03]
7 139.999924 -0.000119 0.000119 54.696468 -32.175148 -33.657566 139.999924
8 139.999924 -0.000119 0.000119 47.916954 -36.952370 -10.224823 139.999924
[Rope3_Seg04]
7 139.999924 0.000119 0.000000 58.944096 -13.811621 0.209876 139.999924
8 139.999924 0.000119 0.000000 20.954914 -11.663032 6.788667 139.999924
[Rope3_Seg05]
7 139.999924 -0.000238 0.000060 21.244476 -2.766793 11.489008 139.999924
8 139.999924 -0.000238 0.000060 13.751451 -6.192770 10.907922 139.999924
[Rope3_Seg06]
7 139.999893 -0.000119 -0.000060 10.098301 5.111489 21.262262 139.999893
8 139.999893 -0.000119 -0.000060 12.352694 -4.764047 22.431902 139.999893
[Rope3_Seg07]
7 139.999771 0.000060 -0.000119 4.822485 8.710510 21.301037 139.999771
8 139.999771 0.000060 -0.000119 5.304756 0.272854 21.851463 139.999771
[Rope3_Seg08]
7 139.999985 -0.000060 0.000000 1.464524 4.229006 9.470302 139.999985
8 139.999985 -0.000060 0.000000 1.381199 0.892875 10.071064 139.999985
[Rope3_Seg09]
7 90.185997 -0.000179 -0.000060 89.793228 -1.359877 -0.847183 90.185997
8 90.185997 -0.000179 -0.000060 89.793228 -1.359877 -0.847183 90.185997
[R_rear_hand01]
7 103.366196 -6.073594 -10.757982 -172.199188 23.472191 -60.427750 104.101845
8 103.366196 -6.073594 -10.757982 -170.781250 22.977592 -56.830051 104.101845
[R_rear_hand02]
7 100.509819 12.039542 -7.992327 -21.205954 33.223911 57.720810 101.543350
8 100.509819 12.039542 -7.992327 -23.185038 31.960989 54.046932 101.543350
[R_rear_hand03]
7 101.539970 5.215704 5.435467 78.624985 -59.850563 13.735100 101.819031
8 101.539970 5.215704 5.435467 79.639069 -56.567928 12.539778 101.819031
[Rope4_Seg01]
7 0.000010 0.000034 -0.000134 50.843502 -21.517838 75.362556 0.000139
8 0.000010 0.000033 -0.000131 48.249317 -25.969971 83.197723 0.000136
[Rope4_Seg02]
7 139.999985 0.000060 0.000119 0.578178 -11.561840 -5.591776 139.999985
8 139.999985 0.000060 0.000119 1.704382 -19.300348 -0.719629 139.999985
[Rope4_Seg03]
7 139.999924 0.000000 -0.000238 9.013174 -32.968193 -10.128890 139.999924
8 139.999924 0.000000 -0.000238 41.257263 -61.998310 16.832115 139.999924
[Rope4_Seg04]
7 139.999985 0.000000 0.000119 -152.330017 -56.779015 -46.531281 139.999985
8 139.999985 0.000000 0.000119 60.151112 -30.738308 22.901100 139.999985
[Rope4_Seg05]
7 139.999802 -0.000060 -0.000119 5.101973 11.495766 9.655399 139.999802
8 139.999802 -0.000060 -0.000119 14.676392 -5.016305 7.973264 139.999802
[Rope4_Seg06]
7 139.999924 0.000000 0.000060 0.291171 2.861977 1.488204 139.999924
8 139.999924 0.000000 0.000060 3.817687 0.244718 2.805965 139.999924
[Rope4_Seg07]
7 139.999802 0.000000 0.000000 0.216223 1.622376 0.830740 139.999802
8 139.999802 0.000000 0.000000 2.187047 0.271484 1.673905 139.999802
[Rope4_Seg08]
7 139.999924 0.000000 0.000119 -1.409113 0.922479 0.470101 139.999924
8 139.999924 0.000000 0.000119 -0.308262 0.197163 0.970500 139.999924
[Rope4_Seg09]
7 90.185791 0.000060 0.000060 -135.617828 2.228885 0.850567 90.185791
8 90.185791 0.000060 0.000060 -135.617828 2.228885 0.850567 90.185791
[L_rear_hand01]
7 101.696655 -8.392275 -7.654577 -30.967802 -24.555588 142.276382 102.329041
8 101.696655 -8.392275 -7.654577 -31.684452 -23.583008 144.025742 102.329041
[L_rear_hand02]
7 102.726799 -1.568258 5.773216 82.497200 40.606583 171.238342 102.900848
8 102.726799 -1.568258 5.773216 82.701553 38.753956 171.553619 102.900848
[L_rear_hand03]
7 104.552910 9.721220 -10.420293 -164.603775 -19.511108 -140.104065 105.519653
8 104.552910 9.721220 -10.420293 -163.975403 -19.004421 -142.009338 105.519653
